<?xml version="1.0" standalone="no"?>
<!DOCTYPE svg PUBLIC "-//W3C//DTD SVG 20010904//EN"
 "http://www.w3.org/TR/2001/REC-SVG-20010904/DTD/svg10.dtd">
<svg version="1.0" xmlns="http://www.w3.org/2000/svg"
 width="64.000000pt" height="64.000000pt" viewBox="0 0 64.000000 64.000000"
 preserveAspectRatio="xMidYMid meet">

<g transform="translate(0.000000,64.000000) scale(0.100000,-0.100000)"
fill="#000000" stroke="none">
<path d="M245 601 c-70 -32 -115 -102 -115 -178 1 -74 60 -166 138 -215 31
-19 32 -21 17 -39 -18 -19 -13 -39 11 -39 9 0 14 -11 14 -34 0 -22 9 -45 24
-63 30 -35 46 -24 17 13 -24 31 -29 84 -7 84 24 0 29 20 11 39 -15 18 -14 20
17 39 114 71 165 198 119 297 -45 98 -152 140 -246 96z m138 -15 c42 -17 93
-76 102 -116 12 -53 -4 -117 -38 -162 -32 -41 -110 -108 -127 -108 -5 0 -28
15 -51 33 -123 93 -153 216 -76 304 53 60 122 78 190 49z m-53 -426 c0 -5 -4
-10 -10 -10 -5 0 -10 5 -10 10 0 6 5 10 10 10 6 0 10 -4 10 -10z"/>
</g>
</svg>
