<?xml version="1.0" standalone="no"?>
<!DOCTYPE svg PUBLIC "-//W3C//DTD SVG 20010904//EN"
 "http://www.w3.org/TR/2001/REC-SVG-20010904/DTD/svg10.dtd">
<svg version="1.0" xmlns="http://www.w3.org/2000/svg"
 width="64.000000pt" height="64.000000pt" viewBox="0 0 64.000000 64.000000"
 preserveAspectRatio="xMidYMid meet">

<g transform="translate(0.000000,64.000000) scale(0.100000,-0.100000)"
fill="#000000" stroke="none">
<path d="M235 627 c-62 -21 -97 -42 -139 -84 -122 -121 -123 -326 -1 -448 122
-121 328 -121 450 0 122 122 121 326 -1 449 -77 77 -215 114 -309 83z m189
-48 c182 -68 235 -324 94 -455 -88 -82 -108 -83 -108 -5 0 58 1 59 38 78 52
27 85 92 78 153 -4 24 -11 49 -16 54 -6 6 -10 27 -10 47 0 21 -3 44 -6 53 -7
18 -46 21 -76 5 -11 -6 -55 -11 -98 -11 -43 0 -87 5 -98 11 -30 16 -69 13 -76
-5 -3 -9 -6 -32 -6 -53 0 -20 -4 -41 -10 -47 -5 -5 -12 -30 -16 -54 -7 -61 26
-126 79 -153 23 -12 37 -26 37 -38 0 -29 -32 -23 -65 11 -27 29 -65 41 -65 21
0 -18 75 -82 103 -88 18 -4 27 -12 27 -24 0 -35 -40 -18 -108 45 -48 44 -74
101 -80 172 -16 209 184 358 382 283z m-104 -113 c52 0 105 4 118 8 20 8 22 5
22 -25 1 -19 7 -45 15 -59 8 -14 14 -42 15 -64 0 -48 -48 -101 -103 -111 -42
-8 -43 -10 -21 -53 9 -18 14 -49 12 -74 l-3 -43 -55 0 -55 0 -3 43 c-2 25 3
56 12 74 22 43 21 45 -21 53 -55 10 -103 63 -103 112 1 21 7 49 15 63 8 14 14
40 15 59 0 30 2 33 23 25 12 -4 65 -8 117 -8z"/>
</g>
</svg>
